PathFileType	3	(X/Y/Z)	D:\VICON_DB\Goncalves\Pilot01\09-03-2026\bw_sq_140_01.trc
DataRate	CameraRate	NumFrames	NumMarkers	Units	OrigDataRate	OrigDataStartFrame	OrigNumFrames
200.0	200.0	14	34	mm	200.0	1	913	
Frame#	Time	LASI			RASI			LPSI			RPSI			LTHI			LTHAP			LTHAD			LKNE			LKNM			LTIB			LTIAP			LTIAD			LANK			LMED			LHEE			LTOE			LFMH			LSMH			LVMH			RTHI			RTHAP			RTHAD			RKNE			RKNM			RTIB			RTIAP			RTIAD			RANK			RMED			RHEE			RTOE			RFMH			RSMH			RVMH			
		X1	Y1	Z1	X2	Y2	Z2	X3	Y3	Z3	X4	Y4	Z4	X5	Y5	Z5	X6	Y6	Z6	X7	Y7	Z7	X8	Y8	Z8	X9	Y9	Z9	X10	Y10	Z10	X11	Y11	Z11	X12	Y12	Z12	X13	Y13	Z13	X14	Y14	Z14	X15	Y15	Z15	X16	Y16	Z16	X17	Y17	Z17	X18	Y18	Z18	X19	Y19	Z19	X20	Y20	Z20	X21	Y21	Z21	X22	Y22	Z22	X23	Y23	Z23	X24	Y24	Z24	X25	Y25	Z25	X26	Y26	Z26	X27	Y27	Z27	X28	Y28	Z28	X29	Y29	Z29	X30	Y30	Z30	X31	Y31	Z31	X32	Y32	Z32	X33	Y33	Z33	X34	Y34	Z34	
1	0	117.26427	859.27881	-1090.4541	113.86954	862.59229	-1353.7205				313.70386	906.23236	-1252.7789	133.73639	689.32043	-998.70819	154.34367	752.2995	-1016.4858	180.45042	632.12177	-960.80035	200.92574	472.25217	-936.71783				252.50781	289.34958	-878.62469	169.2939	352.33817	-916.03528	204.35948	260.64792	-871.21033	269.70398	75.649628	-843.1167				281.2887	58.043064	-908.36261	189.80321	72.411072	-818.69495	127.19524	46.087517	-814.01379				174.63496	23.015381	-748.33667	173.57565	629.94037	-1470.4169	129.69377	741.44653	-1411.6754	109.2171	656.67053	-1430.3423	209.26262	488.04156	-1481.1178				246.90114	305.77823	-1542.1504	179.79948	346.18539	-1510.0092	188.06247	268.73267	-1533.6223	269.71539	62.642075	-1567.4775				274.9841	54.704483	-1515.2468	187.43678	70.625832	-1612.7709	129.17921	51.59478	-1622.4034				181.69562	20.401213	-1674.2021
2	0.005	117.21433	859.28204	-1090.4775	113.8456	862.59406	-1353.7361				314.88409	905.85144	-1252.0132	133.69049	689.31342	-998.72461	154.29195	752.29639	-1016.5012	180.40858	632.11639	-960.81903	200.90456	472.24652	-936.73706				252.48114	289.34781	-878.64069	169.27739	352.33755	-916.04956	204.33824	260.6463	-871.2193	269.70303	75.658501	-843.1347				281.27866	58.048656	-908.37836	189.79523	72.406792	-818.70032	127.19287	46.084526	-814.01141				174.63855	23.012125	-748.33636	173.56354	629.93811	-1470.4175	129.67078	741.44354	-1411.679	109.19662	656.66119	-1430.3483	209.29958	488.04697	-1481.1063				246.9303	305.78006	-1542.15	179.828	346.19299	-1510.0101	188.08435	268.73972	-1533.632	269.7178	62.639862	-1567.4891				275.11084	54.754253	-1515.2311	187.42711	70.633636	-1612.7792	129.19341	51.578041	-1622.3888				181.69005	20.40349	-1674.1976
3	0.01	117.15759	859.28564	-1090.5035	113.81719	862.59644	-1353.7533				316.03043	905.47815	-1251.2656	133.6385	689.30493	-998.74347	154.2346	752.29077	-1016.5201	180.36096	632.10974	-960.84045	200.88052	472.2399	-936.75922				252.45073	289.34555	-878.65912	169.25861	352.33661	-916.06641	204.31392	260.6442	-871.23004	269.70041	75.668907	-843.15411				281.26675	58.055237	-908.39636	189.78622	72.401939	-818.70618	127.19006	46.080986	-814.00861				174.64267	23.008219	-748.33618	173.5504	629.93536	-1470.4197	129.64444	741.44012	-1411.6838	109.17322	656.65204	-1430.358	209.33727	488.05276	-1481.0959				246.95967	305.78177	-1542.1509	179.85728	346.20087	-1510.0123	188.10597	268.7471	-1533.6431	269.72009	62.637516	-1567.5018				275.22949	54.800125	-1515.2172	187.41795	70.641258	-1612.7859	129.20668	51.561199	-1622.373				181.68379	20.405937	-1674.1924
4	0.015	117.0947	859.28937	-1090.532	113.78432	862.59955	-1353.7719				317.09637	905.12701	-1250.5654	133.58101	689.29504	-998.76471	154.17137	752.28302	-1016.5422	180.30801	632.10181	-960.8645	200.85384	472.23236	-936.78436				252.41693	289.3429	-878.67969	169.23767	352.33517	-916.08569	204.28676	260.64157	-871.24274	269.69617	75.680588	-843.17505				281.25296	58.062893	-908.4165	189.77629	72.396568	-818.71259	127.18676	46.076893	-814.00525				174.64726	23.003683	-748.33606	173.5365	629.93231	-1470.4235	129.61505	741.43658	-1411.6904	109.14707	656.64343	-1430.3724	209.37416	488.05887	-1481.0875				246.9877	305.78336	-1542.1531	179.88596	346.20868	-1510.0157	188.12604	268.75433	-1533.6559	269.72195	62.635139	-1567.5156				275.33359	54.839531	-1515.2057	187.40994	70.648277	-1612.7909	129.21832	51.544727	-1622.3566				181.67696	20.408524	-1674.1866
5	0.02	117.02654	859.29321	-1090.5618	113.74712	862.60358	-1353.7914				318.05066	904.80762	-1249.9325	133.51889	689.28375	-998.78827	154.10168	752.27362	-1016.5663	180.25035	632.09253	-960.89087	200.82474	472.224	-936.81213				252.38013	289.33984	-878.70209	169.21474	352.33325	-916.10754	204.25697	260.63849	-871.25732	269.69052	75.693146	-843.19702				281.23755	58.071701	-908.43872	189.76553	72.390678	-818.71936	127.18304	46.072289	-814.00153				174.6523	22.99861	-748.336	173.52216	629.92896	-1470.4293	129.58295	741.43335	-1411.6995	109.11845	656.63617	-1430.3921	209.40875	488.06516	-1481.0817				247.01257	305.78476	-1542.1571	179.91246	346.21616	-1510.0208	188.14314	268.7612	-1533.6697	269.7233	62.632851	-1567.5299				275.41824	54.870625	-1515.1975	187.4035	70.654343	-1612.7933	129.22783	51.52895	-1622.3394				181.66957	20.411255	-1674.1801
6	0.025	116.95414	859.297	-1090.5929	113.70573	862.6087	-1353.8115				318.8761	904.52533	-1249.3779	133.45306	689.27087	-998.81403	154.02509	752.26282	-1016.5914	180.18864	632.08197	-960.91956	200.7933	472.21484	-936.84235				252.3407	289.3364	-878.72644	169.18988	352.33075	-916.13135	204.22478	260.63495	-871.2735	269.68365	75.706161	-843.22034				281.22073	58.081631	-908.46283	189.75406	72.384285	-818.72668	127.1788	46.067238	-813.99738				174.65771	22.993153	-748.33594	173.50769	629.92542	-1470.437	129.54849	741.43054	-1411.7108	109.08765	656.63062	-1430.4177	209.43961	488.07159	-1481.0786				247.03249	305.78589	-1542.163	179.93521	346.22281	-1510.0271	188.15588	268.76724	-1533.6844	269.72385	62.63081	-1567.5444				275.48029	54.892307	-1515.1926	187.39868	70.659248	-1612.7927	129.23488	51.513992	-1622.3217				181.66176	20.414186	-1674.1727
7	0.03	116.87856	859.3006	-1090.6245	113.6604	862.61499	-1353.8323				319.56653	904.28217	-1248.9061	133.38446	689.25647	-998.8421	153.94128	752.25134	-1016.6167	180.1235	632.07007	-960.95007	200.75964	472.20514	-936.87445				252.2991	289.33258	-878.75238	169.16315	352.32776	-916.15674	204.19041	260.6312	-871.29114	269.67606	75.71936	-843.24487				281.20285	58.092514	-908.48859	189.74196	72.377472	-818.73438	127.17406	46.06184	-813.9931				174.66354	22.987528	-748.33594	173.49329	629.92206	-1470.4469	129.51207	741.42883	-1411.7256	109.05496	656.6275	-1430.4495	209.46535	488.07822	-1481.079				247.04582	305.78674	-1542.1713	179.95277	346.22839	-1510.0349	188.16298	268.77219	-1533.6996	269.72327	62.629185	-1567.5587				275.51755	54.904091	-1515.1909	187.39526	70.66304	-1612.7891	129.23933	51.499836	-1622.3032				181.65353	20.417433	-1674.1652
8	0.035	116.80093	859.30402	-1090.6566	113.61143	862.62219	-1353.8535				320.12405	904.07745	-1248.5161	133.31395	689.24072	-998.87256	153.85022	752.23932	-1016.6415	180.05556	632.05695	-960.98224	200.72375	472.19516	-936.90808				252.25565	289.32846	-878.77997	169.13457	352.32449	-916.18347	204.15401	260.62732	-871.31012	269.66812	75.732521	-843.27051				281.18408	58.104122	-908.51562	189.72931	72.370384	-818.74249	127.16881	46.056225	-813.98853				174.66965	22.981953	-748.33594	173.47913	629.91876	-1470.4585	129.47408	741.42883	-1411.7441	109.02061	656.6272	-1430.4878	209.48485	488.08505	-1481.0823				247.05124	305.78726	-1542.1815	179.96387	346.23257	-1510.0438	188.16345	268.77591	-1533.7148	269.72147	62.628151	-1567.5726				275.52939	54.905998	-1515.1929	187.39267	70.665855	-1612.7828	129.2411	51.486462	-1622.2848				181.64494	20.421124	-1674.157
9	0.04	116.72228	859.30701	-1090.6888	113.55913	862.63013	-1353.875				320.55667	903.90887	-1248.2034	133.24229	689.22345	-998.90552	153.75201	752.22736	-1016.6652	179.98534	632.04297	-961.01593	200.68553	472.18512	-936.94269				252.21068	289.32413	-878.8092	169.10408	352.32101	-916.21075	204.11566	260.62363	-871.32983	269.66028	75.745567	-843.2973				281.16455	58.11615	-908.54382	189.71614	72.363174	-818.75122	127.16302	46.050549	-813.98376				174.67599	22.976667	-748.33588	173.46527	629.91577	-1470.4714	129.43472	741.43109	-1411.7667	108.98475	656.63007	-1430.532	209.49707	488.09238	-1481.0892				247.04782	305.78757	-1542.1938	179.96771	346.23517	-1510.0542	188.15668	268.77829	-1533.73	269.7182	62.627823	-1567.5854				275.51584	54.898476	-1515.1982	187.39032	70.667915	-1612.7744	129.24017	51.473846	-1622.266				181.63608	20.425365	-1674.1487
10	0.045	116.64365	859.30945	-1090.7208	113.50385	862.63879	-1353.8972				320.87595	903.77289	-1247.9615	133.17015	689.20502	-998.9411	153.64708	752.21576	-1016.6879	179.91327	632.02814	-961.05084	200.64484	472.17551	-936.97772				252.16446	289.31973	-878.84027	169.07158	352.3175	-916.23822	204.07549	260.62036	-871.34991	269.65286	75.758553	-843.32513				281.1445	58.128231	-908.57288	189.70255	72.356041	-818.76031	127.15676	46.044926	-813.97882				174.68254	22.97187	-748.33575	173.45166	629.91321	-1470.485	129.39418	741.4361	-1411.7942	108.94742	656.63635	-1430.5822	209.5013	488.10016	-1481.0995				247.03522	305.78769	-1542.2086	179.96385	346.23615	-1510.0658	188.14247	268.77945	-1533.745	269.71341	62.628315	-1567.5974				275.47806	54.882351	-1515.2067	187.38777	70.669334	-1612.7643	129.23659	51.461819	-1622.2468				181.627	20.430241	-1674.14
11	0.05	116.56588	859.31134	-1090.7522	113.44599	862.64795	-1353.9198				321.09552	903.66534	-1247.7821	133.09804	689.18542	-998.97968	153.53616	752.20471	-1016.7094	179.83975	632.01288	-961.08685	200.60158	472.1665	-937.0127				252.11716	289.31519	-878.87329	169.03691	352.31409	-916.26538	204.03354	260.61777	-871.37	269.64618	75.771675	-843.354				281.12396	58.139992	-908.60266	189.68846	72.349136	-818.76996	127.15005	46.039482	-813.97388				174.68921	22.967733	-748.33551	173.43826	629.91125	-1470.4984	129.35249	741.44427	-1411.8264	108.90852	656.64655	-1430.6384	209.49713	488.10867	-1481.1133				247.01353	305.78775	-1542.2253	179.95226	346.23553	-1510.0785	188.12108	268.77954	-1533.76	269.70703	62.629631	-1567.6079				275.4184	54.858807	-1515.2184	187.38489	70.670021	-1612.7528	129.23055	51.450146	-1622.2279				181.61781	20.435762	-1674.1312
12	0.055	116.48978	859.3125	-1090.7831	113.38594	862.65765	-1353.943				321.23001	903.58228	-1247.6569	133.02635	689.16504	-999.02124	153.42038	752.1944	-1016.73	179.76506	631.99744	-961.12378	200.55559	472.15845	-937.047				252.06888	289.31061	-878.90845	168.99988	352.31076	-916.29169	203.98985	260.61603	-871.38959	269.64023	75.785187	-843.38379				281.10309	58.151054	-908.63293	189.67387	72.342628	-818.78003	127.14291	46.034275	-813.96893				174.69588	22.964361	-748.33521	173.42484	629.90961	-1470.5115	129.3096	741.45599	-1411.8636	108.86788	656.66058	-1430.6998	209.48454	488.11795	-1481.1309				246.98347	305.78784	-1542.2439	179.93323	346.23358	-1510.0931	188.09314	268.7789	-1533.7751	269.69913	62.631718	-1567.6171				275.34021	54.829403	-1515.2328	187.38176	70.669823	-1612.7399	129.2224	51.438507	-1622.2089				181.6086	20.441851	-1674.1227
13	0.06	116.41598	859.31281	-1090.8134	113.32405	862.66803	-1353.9666				321.2937	903.51947	-1247.577	132.9554	689.1441	-999.06598	153.30133	752.18512	-1016.7502	179.68945	631.98206	-961.16119	200.50688	472.15158	-937.08014				252.01967	289.30588	-878.94592	168.96034	352.30746	-916.31689	203.9444	260.61539	-871.4079	269.63507	75.799446	-843.41418				281.08173	58.161087	-908.6637	189.65874	72.336563	-818.79059	127.13538	46.029346	-813.96399				174.70256	22.9618	-748.33472	173.41116	629.90863	-1470.5232	129.26527	741.47119	-1411.906	108.82529	656.67828	-1430.7665	209.46388	488.12811	-1481.1517				246.94606	305.78802	-1542.264	179.90739	346.2305	-1510.1095	188.05962	268.77771	-1533.7908	269.68988	62.634438	-1567.6248				275.24796	54.796036	-1515.2499	187.37843	70.668602	-1612.7263	129.21255	51.426601	-1622.1898				181.59953	20.448334	-1674.1144
14	0.065	116.34501	859.31232	-1090.843	113.26066	862.67902	-1353.9912				321.30032	903.47321	-1247.5347	132.88541	689.12274	-999.11389	153.18115	752.17651	-1016.7711	179.61304	631.96692	-961.19885	200.45537	472.14584	-937.11157				251.96948	289.30081	-878.98596	168.91815	352.3042	-916.34064	203.89717	260.61578	-871.42462	269.63049	75.814766	-843.44507				281.05997	58.169819	-908.69476	189.64299	72.330948	-818.80182	127.12749	46.024662	-813.95917				174.70918	22.960001	-748.33392	173.39699	629.9079	-1470.5334	129.2193	741.48975	-1411.953	108.78054	656.6994	-1430.8378	209.43578	488.13931	-1481.1759				246.90279	305.78836	-1542.2853	179.87567	346.22665	-1510.1283	188.02167	268.7764	-1533.8075	269.67944	62.637604	-1567.6313				275.14655	54.76067	-1515.269	187.37492	70.666321	-1612.7123	129.20158	51.414143	-1622.1711				181.59071	20.454971	-1674.1064
